<svg width="122" height="144" viewBox="0 0 122 144" fill="none" xmlns="http://www.w3.org/2000/svg">
<path fill-rule="evenodd" clip-rule="evenodd" d="M113.871 112.048H121.12V143.565H113.871V112.048Z" fill="#303030"/>
<path fill-rule="evenodd" clip-rule="evenodd" d="M99.7733 143.565V124.635L90.6112 140.29H87.3894L78.2273 125.044V143.565H71.5823V112.048H77.5225L89.101 131.695L100.579 112.048H106.418L106.519 143.565H99.7733Z" fill="#303030"/>
<path fill-rule="evenodd" clip-rule="evenodd" d="M56.9867 112.048H64.1351V143.565H56.9867V112.048Z" fill="#303030"/>
<path fill-rule="evenodd" clip-rule="evenodd" d="M44.1995 143.565L38.1585 134.765H37.8565H34.534V143.565H27.3855V112.048H37.8565C40.6085 112.048 42.9913 112.526 45.0049 113.481C47.0185 114.368 48.5623 115.664 49.6363 117.369C50.7774 119.143 51.3479 121.19 51.3479 123.509C51.3479 125.828 50.7774 127.841 49.6363 129.546C48.5623 131.252 46.985 132.548 44.9042 133.435L51.8513 143.565H44.1995ZM44.0988 123.509C44.0988 121.735 43.5283 120.371 42.3872 119.416C41.3133 118.461 39.6688 117.983 37.4537 117.983H34.6347V129.035H37.4537C39.6688 129.035 41.3133 128.557 42.3872 127.602C43.5283 126.579 44.0988 125.214 44.0988 123.509Z" fill="#303030"/>
<path fill-rule="evenodd" clip-rule="evenodd" d="M7.95388 117.983H0V112.048H22.7542V117.983H15.1023V143.565H7.95388V117.983Z" fill="#303030"/>
<path d="M106.422 16.1676C102.496 7.46984 95.3471 3.88843 93.1321 2.76283C92.9979 2.69462 92.8636 2.66047 92.7294 2.66047C87.6953 0.204628 83.1646 0 81.3523 0C79.6407 0 78.0298 0.102289 76.7209 0.409269C73.7004 0.818576 71.4854 1.73957 70.3779 2.2512C63.9343 5.01402 60.7124 9.41405 60.6117 9.51637C60.4104 9.41405 57.1886 5.01402 50.7449 2.2512C49.7381 1.73957 47.5231 0.818576 44.5026 0.409269C43.0931 0.102289 41.4822 0 39.7706 0C38.059 0 33.5282 0.204628 28.3935 2.66047C28.2592 2.66047 28.125 2.69462 27.9907 2.76283C25.8764 3.88843 18.6273 7.46984 14.7007 16.1676C11.4789 23.3305 12.385 29.8794 12.6871 32.0282C14.0966 41.5446 19.8355 47.3772 21.7485 49.2191L28.3935 55.9727L44.5026 72.345L58.5981 86.773C58.5981 86.773 59.3029 87.387 59.6049 87.5916C59.7392 87.7281 59.8734 87.7963 60.0077 87.7963C60.1084 87.8986 60.3097 87.8986 60.6117 87.8986C60.8131 87.8986 61.1152 87.8986 61.2158 87.7963C61.3501 87.7281 61.4843 87.6599 61.6186 87.5916C61.8199 87.387 62.5247 86.773 62.5247 86.773L76.7209 72.345L92.7294 55.9727L99.4751 49.2191C101.388 47.3772 107.026 41.5446 108.436 32.0282C108.839 29.8794 109.745 23.3305 106.422 16.1676Z" fill="url(#paint0_linear_1_732)"/>
<path fill-rule="evenodd" clip-rule="evenodd" d="M57.788 24.0478L75.206 38.7828C75.8101 39.2945 76.1121 39.9085 76.2128 40.6248C76.2128 40.693 76.2128 40.7611 76.2128 40.8294C76.2128 40.8976 76.2128 40.9658 76.2128 41.034C76.1121 41.648 75.8101 42.3643 75.206 42.8759L57.788 57.5087C56.6805 58.5319 55.2709 59.5552 53.66 59.1459C52.2505 58.8389 52.0491 57.7133 51.9484 56.69V41.034V40.6248V24.8664C52.0491 23.8431 52.2505 22.8199 53.66 22.4105C55.2709 22.1036 56.6805 23.1269 57.788 24.0478Z" fill="white"/>
<defs>
<linearGradient id="paint0_linear_1_732" x1="12.3246" y1="-0.00818682" x2="108.849" y2="-0.00818682" gradientUnits="userSpaceOnUse">
<stop offset="0.034" stop-color="#FFC400"/>
<stop offset="0.169" stop-color="#FF7400"/>
<stop offset="0.358" stop-color="#FF0000"/>
<stop offset="0.526" stop-color="#D632EA"/>
<stop offset="0.671" stop-color="#136DEA"/>
<stop offset="0.855" stop-color="#13C2EA"/>
<stop offset="1" stop-color="#3BE28A"/>
</linearGradient>
</defs>
</svg>
